/* XPM */
static char *_7e7318320074cc5d695618d637ca017oR5wCQhrZiX9isjy[] = {
/* columns rows colors chars-per-pixel */
"64 64 158 2 ",
"   c #333300",
".  c #323400",
"X  c #3C3602",
"o  c #353A00",
"O  c #34300A",
"+  c #33340C",
"@  c #3F330D",
"#  c #3A3C15",
"$  c #443B00",
"%  c #443113",
"&  c #5E5F1D",
"*  c #675500",
"=  c #6B5800",
"-  c #6D5608",
";  c #73560A",
":  c #725B0B",
">  c #6B5712",
",  c #67591C",
"<  c #6B5C1B",
"1  c #6C7C15",
"2  c #604F24",
"3  c #787524",
"4  c #7C7529",
"5  c #7E7236",
"6  c #7B7539",
"7  c #7C7046",
"8  c #807116",
"9  c #89731E",
"0  c #8A761F",
"q  c #857927",
"w  c #84782C",
"e  c #8D7630",
"r  c #807639",
"t  c #827241",
"y  c #827854",
"u  c #81921B",
"i  c #90AD19",
"p  c #96B41F",
"a  c #92A520",
"s  c #99AD23",
"d  c #97A52E",
"f  c #99AD2D",
"g  c #98B226",
"h  c #96AA38",
"j  c #9EAC39",
"k  c #A2BD21",
"l  c #A9D51B",
"z  c #B1E11D",
"x  c #B5E61D",
"c  c #A1C523",
"v  c #A4C820",
"b  c #ADD723",
"n  c #B2DA2E",
"m  c #B1D437",
"M  c #B4E125",
"N  c #B5955A",
"B  c #B2A74B",
"V  c #B5AB4C",
"C  c #B5AF4F",
"Z  c #B8AC4A",
"A  c #ABA255",
"S  c #ABA45C",
"D  c #ABAD59",
"F  c #B8A755",
"G  c #B9AC50",
"H  c #B8A65C",
"J  c #B6A85D",
"K  c #B3AC5C",
"L  c #B7AF5C",
"P  c #BAB156",
"I  c #BEB357",
"U  c #AE9D72",
"Y  c #B69E7A",
"T  c #AEA56A",
"R  c #AFAA68",
"E  c #B6A464",
"W  c #BEA763",
"Q  c #B4AC63",
"!  c #B5A569",
"~  c #B8B169",
"^  c #A7A575",
"/  c #AFA170",
"(  c #ACA676",
")  c #AFA779",
"_  c #ACAE7C",
"`  c #B0A574",
"'  c #B8A472",
"]  c #B2B37A",
"[  c #C1A661",
"{  c #C0AE64",
"}  c #B5CA46",
"|  c #B0C14B",
" . c #ACC25F",
".. c #FFF07F",
"X. c #A9A588",
"o. c #BCB184",
"O. c #FFF484",
"+. c #FFF488",
"@. c #FFF58D",
"#. c #EFEC9F",
"$. c #F3E791",
"%. c #F3EC94",
"&. c #FAE892",
"*. c #F2EF9F",
"=. c #FBEF9B",
"-. c #FFEF9D",
";. c #F7F096",
":. c #FFF591",
">. c #FAF097",
",. c #FDF296",
"<. c #FAF496",
"1. c #FEF694",
"2. c #FFF893",
"3. c #F3F198",
"4. c #F9F298",
"5. c #FDF19B",
"6. c #FFF19E",
"7. c #FFF49C",
"8. c #E8EDAB",
"9. c #F1EFA6",
"0. c #FCE9A4",
"q. c #FCEEA5",
"w. c #F3EFA9",
"e. c #F6EDAA",
"r. c #F0EAAC",
"t. c #F9EBAA",
"y. c #FDEAAF",
"u. c #FAEFAD",
"i. c #F2F0A0",
"p. c #F7F0A2",
"a. c #F5F2A6",
"s. c #FFF2A2",
"d. c #FCF4A1",
"f. c #F8F2A4",
"g. c #FFF1A4",
"h. c #F4F0A9",
"j. c #F9F0AB",
"k. c #FCF4AB",
"l. c #F8F1AD",
"z. c #FEF0AE",
"x. c #FDF5AC",
"c. c #FBF8A9",
"v. c #EFEAB2",
"b. c #F1ECB2",
"n. c #FFEFB3",
"m. c #F3EFBF",
"M. c #F4F0B1",
"N. c #F3F6B3",
"B. c #F6F1B7",
"V. c #FFF5B0",
"C. c #FCF7B5",
"Z. c #FFFDB1",
"A. c #FFF1BA",
"S. c #F3E4C3",
"D. c #F0EBC3",
"F. c #F1EDC3",
"G. c #F6F3C8",
"H. c #FFF3C9",
/* pixels */
"x x x x x x x x x x x x x x x x x x x x x x x x x x x x x x x x x x x x x x x x x x x x x x x x x x x x x x x x x x x x x x x x ",
"x x x x x x x x x x x x x x x x x x x x x x x x x x x x x x x x x x x x x x x x x x x x x x x x x x x x x x x x x x x x x x x x ",
"x x x x x x x x x x x x x x x x x x x x x x x x x x x x x x x x x x x x x x x x x x x x x x x x x x x x x x x x x x x x x x x x ",
"x x x x x x x x x x x x x x x x x x x x x x x x x x x x x x x x x x x x x x x x x x x x x x x x x x x x x x x x x x x x x x x x ",
"x x x x x x x x x x x x x x x x x x x x x x x x x x x x x x x x x x x x x x x x x x x x x x x x x x x x x x x x x x x x x x x x ",
"x x x x x x x x x x x x x x x x x x x x x x x x x x x x x x x x x x x x x x x x x x x x x x x x x x x x x x x x x x x x x x x x ",
"x x x x x x x x x x x x x x x x x x x x x x x x x x x x x x x x x x x x x x x x x x x x x x x x x x x x x x x x x x x x x x x x ",
"x x x x x x x x x x x x x x x x x x x x x x x x x x x x x x x x x x x x x x x x x x x x x x x x x x x x x x x x x x x x x x x x ",
"x x x x x x x x x x x x x x x x x x x x x x x x x x x x x x x x x x x x x x x x x x x x x x x x x x x x x x x x x x x x x x x x ",
"x x x x x x x x x x x x x x x x x x x x x x x x x x x x x x x x x x x x x x x x x x x x x x x x x x x x x x x x x x x x x x x x ",
"x x x x x x x x x x x x x x x x x x x x x x x x x x x x x x x x x x x x x x x x x x x x x x x x x x x x x x x x x x x x x x x x ",
"x x x x x x x x x x x x x x x x x x x x x x x x x x x x x x x x x x x x x x x x x x x x x x x x x x x x x x x x x x x x x x x x ",
"x x x x x x x x x x x x x x x x x x x x x x x x x x x x x x x x x x x x x x x x x x x x x x x x x x x x x x x x x x x x x x x x ",
"x x x x x x x x x x x x x x x x x x x x x x x x x x x x x x x x x x x x x x x x x x x x x x x x x x x x x x x x x x x x x x x x ",
"x x x x x x x x x x x x x x x x x x x x x x x x x x x x x x x x x x x x x x x x x x x x x x x x x x x x x x x x x x x x x x x x ",
"x x x x x x x x x x x x x x x x x x x x x x x x x x x x x x x x x x x x x x x x x x x x x x x x x x x x x x x x x x x x x x x x ",
"x x x x x x x x x x x x x x x x x x x x x x x x x x x x x x x x x x x x x x x x x x x x x x x x x x x x x x x x x x x x x x x x ",
"x x x x x x x x x x x x x x x x x x x x x x x x x x x x x x x x x x x x x x x x x x x x x x x x x x x x x x x x x x x x x x x x ",
"x x x x x x x x x x x x x x x x x x x x x x x x x x x x x x x x x x x x x x x x x x x x x x x x x x x x x x x x x x x x x x x x ",
"x x x x x x x x x x x x x x x x x x x x x x x x x x x x x x x x x x x x x x x x x x x x x x x x x x x x x x x x x x x x x x x x ",
"x x x x x x x x x x x x x x x x x x x x x x x x x x x x x x x x x x x x x x x x x x x x x x x x x x x x x x x x x x x x x x x x ",
"x x x x x x x x x x x x x x x x x x x x x x x x x x x x x x x x x x x x x x x x x x x x x x x x x x x x x x x x x x x x x x x x ",
"x x x x x x x x x x x x x x x x x x x x x x x x x x x x x x x x x x x x x x x x x x x x x x x x x x x x x x x x x x x x x x x x ",
"x x x x x x x x x x x x x x x x x x x x x x x x x x x x x x x x x x x x x x x x x x x x x x x x x x x x x x x x x x x x x x x x ",
"x x x x x x x x x x x x x x x x x x x x x x x x x x x x x x x x x x x x x x x x x x x x x x x x x x x x x x x x x x x x x x x x ",
"x x x x x x x x x x x x x x x x x x x x x x x x x x x x x x v.M.B.m.x x x x x x x x x x x x x x x x x x x x x x x x x x x x x x ",
"x x x x x x x x x x x x x x x x x x x x x x x x x x x x x r.Z.K Q T D.x x x x x x x x x x x x x x x x x x x x x x x x x x x x x ",
"x x x x x x x x x x x x x x x x x x x x x x x x x x x n f x.%.>.s.t.H.x x x x x x x x x x x x x x x x x x x x x x x x x x x x x ",
"x x x x x x x x x x x x x x x x x x x x x x x x x x m ) r w 5.7.6.0.j x x x x x x x x x x x x x x x x x x x x x x x x x x x x x ",
"x x x x x x x x x x x x x x x x x x x x x x x x x x F.o.5 q.F 0 9 e S x x x x x x x x x x x x x x x x x x x x x x x x x x x x x ",
"x x x x x x x x x x x x x x x x x x x x x x x x x x h S.t E g.6.6.[ 4 x x x x x x x x x x x x x x x x x x x x x x x x x x x x x ",
"x x x x x x x x x x x x x x x x x x x x x x x x x x 1 y 7 A.H F - > ' l z z z x x x x x x x x x x x x x x x x x x x x x x x x x ",
"x x x x x x x x x x x x x x x x x x x x x x x l.j.h.N.o + ^ k.d.j.R $ l.u.e.l.x x x x x x x x x x x x x x x x x x x x x x x x x ",
"x x x x x x x x x x x x x x x x x x x x x x a.,.Z C D 8.# G.A L & . #.7.B V P i.x x x x x x x x x x x x x x x x x x x x x x x x ",
"x x x x x x x x x x x x x x x x x x x x x x 3.+...+.4.C.@ 2 s.&.b.] c.<.@.2.;.9.x x x x x x x x x x x x x x x x x x x x x x x x ",
"x x x x x x x x x x x x x x x x x x x x x x k +.O.@.=.r % Y ; : X   3 1.:.1.p.b x x x x x x x x x x x x x x x x x x x x x x x x ",
"x x x x x x x x x x x x x x x x x x x x x x *.G = * < U u d N W F._ f.I 8 q 6 M x x x x x x x x x x x x x x x x x x x x x x x x ",
"x x x x x x x x x x x x x x x x x x x x x x p z.z.! ` i x x s a x x ~ $.-.V.( x x x x x x x x x x x x x x x x x x x x x x x x x ",
"x x x x x x x x x x x x x x x x x x x x x x x c c x x x x x x x x x w.J { , O  .x x x x x x x x x x x x x x x x x x x x x x x x ",
"x x x x x x x x x x x x x x x x x x x x x x x x x x x x x x x x x x | n.y./ X.x x x x x x x x x x x x x x x x x x x x x x x x x ",
"x x x x x x x x x x x x x x x x x x x x x x x x x x x x x x x x x x x } v g z x x x x x x x x x x x x x x x x x x x x x x x x x ",
"x x x x x x x x x x x x x x x x x x x x x x x x x x x x x x x x x x x x x x x x x x x x x x x x x x x x x x x x x x x x x x x x ",
"x x x x x x x x x x x x x x x x x x x x x x x x x x x x x x x x x x x x x x x x x x x x x x x x x x x x x x x x x x x x x x x x ",
"x x x x x x x x x x x x x x x x x x x x x x x x x x x x x x x x x x x x x x x x x x x x x x x x x x x x x x x x x x x x x x x x ",
"x x x x x x x x x x x x x x x x x x x x x x x x x x x x x x x x x x x x x x x x x x x x x x x x x x x x x x x x x x x x x x x x ",
"x x x x x x x x x x x x x x x x x x x x x x x x x x x x x x x x x x x x x x x x x x x x x x x x x x x x x x x x x x x x x x x x ",
"x x x x x x x x x x x x x x x x x x x x x x x x x x x x x x x x x x x x x x x x x x x x x x x x x x x x x x x x x x x x x x x x ",
"x x x x x x x x x x x x x x x x x x x x x x x x x x x x x x x x x x x x x x x x x x x x x x x x x x x x x x x x x x x x x x x x ",
"x x x x x x x x x x x x x x x x x x x x x x x x x x x x x x x x x x x x x x x x x x x x x x x x x x x x x x x x x x x x x x x x ",
"x x x x x x x x x x x x x x x x x x x x x x x x x x x x x x x x x x x x x x x x x x x x x x x x x x x x x x x x x x x x x x x x ",
"x x x x x x x x x x x x x x x x x x x x x x x x x x x x x x x x x x x x x x x x x x x x x x x x x x x x x x x x x x x x x x x x ",
"x x x x x x x x x x x x x x x x x x x x x x x x x x x x x x x x x x x x x x x x x x x x x x x x x x x x x x x x x x x x x x x x ",
"x x x x x x x x x x x x x x x x x x x x x x x x x x x x x x x x x x x x x x x x x x x x x x x x x x x x x x x x x x x x x x x x ",
"x x x x x x x x x x x x x x x x x x x x x x x x x x x x x x x x x x x x x x x x x x x x x x x x x x x x x x x x x x x x x x x x ",
"x x x x x x x x x x x x x x x x x x x x x x x x x x x x x x x x x x x x x x x x x x x x x x x x x x x x x x x x x x x x x x x x ",
"x x x x x x x x x x x x x x x x x x x x x x x x x x x x x x x x x x x x x x x x x x x x x x x x x x x x x x x x x x x x x x x x ",
"x x x x x x x x x x x x x x x x x x x x x x x x x x x x x x x x x x x x x x x x x x x x x x x x x x x x x x x x x x x x x x x x ",
"x x x x x x x x x x x x x x x x x x x x x x x x x x x x x x x x x x x x x x x x x x x x x x x x x x x x x x x x x x x x x x x x ",
"x x x x x x x x x x x x x x x x x x x x x x x x x x x x x x x x x x x x x x x x x x x x x x x x x x x x x x x x x x x x x x x x ",
"x x x x x x x x x x x x x x x x x x x x x x x x x x x x x x x x x x x x x x x x x x x x x x x x x x x x x x x x x x x x x x x x ",
"x x x x x x x x x x x x x x x x x x x x x x x x x x x x x x x x x x x x x x x x x x x x x x x x x x x x x x x x x x x x x x x x ",
"x x x x x x x x x x x x x x x x x x x x x x x x x x x x x x x x x x x x x x x x x x x x x x x x x x x x x x x x x x x x x x x x ",
"x x x x x x x x x x x x x x x x x x x x x x x x x x x x x x x x x x x x x x x x x x x x x x x x x x x x x x x x x x x x x x x x ",
"x x x x x x x x x x x x x x x x x x x x x x x x x x x x x x x x x x x x x x x x x x x x x x x x x x x x x x x x x x x x x x x x "
};
