/* XPM */
static char *d99ee1237f8a481789b29af443ab6714AYnXebcjMXFklQ4c[] = {
/* columns rows colors chars-per-pixel */
"64 64 6 1 ",
"  c None",
". c #17394A",
"X c #874A00",
"o c #8C6A56",
"O c #BAA368",
"+ c #FAFA82",
/* pixels */
"                                                                ",
"                                                                ",
"                                                                ",
"                                                                ",
"                                                                ",
"                                                                ",
"                                                                ",
"                                                                ",
"                                                                ",
"                                                                ",
"                                                                ",
"                                                                ",
"                                                                ",
"                                                                ",
"                                                                ",
"                                                                ",
"                                                                ",
"                                                                ",
"                                                                ",
"                                                                ",
"                                                                ",
"                                                                ",
"                                                                ",
"                                                                ",
"                                                                ",
"                              ++++                              ",
"                             ++OOO+                             ",
"                           Oo++++++                             ",
"                          OOoo++++o                             ",
"                          +Oo+OoooO                             ",
"                          o+oO+++OX                             ",
"                          .oo+OOXXO                             ",
"                       ++++..O+++O.++++                         ",
"                      ++OOO+.+OOX.++OOO+                        ",
"                      ++++++.X+++O++++++                        ",
"                      o++++o.OXX..o++++o                        ",
"                      +OXXXO.XOO+O+OoooO                        ",
"                      X++OO.  XX..O+++O.                        ",
"                       XX..       +OOX.O                        ",
"                                  O++OO.                        ",
"                                   OXX.                         ",
"                                                                ",
"                                                                ",
"                                                                ",
"                                                                ",
"                                                                ",
"                                                                ",
"                                                                ",
"                                                                ",
"                                                                ",
"                                                                ",
"                                                                ",
"                                                                ",
"                                                                ",
"                                                                ",
"                                                                ",
"                                                                ",
"                                                                ",
"                                                                ",
"                                                                ",
"                                                                ",
"                                                                ",
"                                                                ",
"                                                                "
};
