/* XPM */
static char *_eed76344f9e45a4b0810d86e51741d8OdVGDsiTBrVX2lah[] = {
/* columns rows colors chars-per-pixel */
"64 64 188 2 ",
"   c #3D0F00",
".  c #341403",
"X  c #3B1302",
"o  c #391706",
"O  c #3D1B09",
"+  c #440E00",
"@  c #4A0D00",
"#  c #520E00",
"$  c #441300",
"%  c #4B1300",
"&  c #451901",
"*  c #461E0D",
"=  c #511402",
"-  c #780F00",
";  c #69190A",
":  c #741501",
">  c #7A1500",
",  c #751C00",
"<  c #7B1B01",
"1  c #5C2700",
"2  c #502E00",
"3  c #6C2200",
"4  c #5D610C",
"5  c #5F720E",
"6  c #61610C",
"7  c #717C10",
"8  c #7C4525",
"9  c #7D4B26",
"0  c #7C502D",
"q  c #7E4F31",
"w  c #7E5041",
"e  c #831E06",
"r  c #851A0A",
"t  c #821C10",
"y  c #812301",
"u  c #98390A",
"i  c #9D3C0C",
"p  c #8D3D1D",
"a  c #973216",
"s  c #963D14",
"d  c #9D3C13",
"f  c #943F19",
"g  c #9A3D1C",
"h  c #A13302",
"j  c #A23D07",
"k  c #AE370F",
"l  c #A43E0D",
"z  c #AA3E0E",
"x  c #A03513",
"c  c #A53E13",
"v  c #AA3E15",
"b  c #A33D1A",
"n  c #AA3D1A",
"m  c #B13A16",
"M  c #B53E1A",
"N  c #9C3C26",
"B  c #A43C23",
"V  c #A83F24",
"C  c #A23F28",
"Z  c #A93B2C",
"A  c #A43D34",
"S  c #9D420D",
"D  c #9A4C0A",
"F  c #875000",
"G  c #805008",
"H  c #83421F",
"J  c #8E4019",
"K  c #934014",
"L  c #9C4314",
"P  c #9D4B17",
"I  c #94441C",
"U  c #9C431B",
"Y  c #914D1C",
"T  c #9C4A1C",
"R  c #A14107",
"E  c #A4420D",
"W  c #A9440D",
"Q  c #A4490E",
"!  c #A44213",
"~  c #AB4314",
"^  c #A44A14",
"/  c #A94813",
"(  c #A3441B",
")  c #AB421B",
"_  c #A1491C",
"`  c #AA4B1E",
"'  c #B2431D",
"]  c #A7511E",
"[  c #834625",
"{  c #8A4525",
"}  c #854A24",
"|  c #8C4A25",
" . c #8C462D",
".. c #864C2C",
"X. c #8C4A2B",
"o. c #954521",
"O. c #9C4523",
"+. c #944A23",
"@. c #9A4A24",
"#. c #95452A",
"$. c #9D452B",
"%. c #944A2B",
"&. c #984B2D",
"*. c #92542F",
"=. c #8B4632",
"-. c #874C35",
";. c #8C4D34",
":. c #874D3A",
">. c #924A33",
",. c #924A35",
"<. c #984138",
"1. c #965638",
"2. c #A34422",
"3. c #AA4422",
"4. c #A34821",
"5. c #A74C27",
"6. c #A3442B",
"7. c #B24622",
"8. c #A94B32",
"9. c #926E2A",
"0. c #88742D",
"q. c #96732A",
"w. c #836233",
"e. c #896C34",
"r. c #8B7E31",
"t. c #BF7E62",
"y. c #DA7748",
"u. c #DA794D",
"i. c #C97E54",
"p. c #D97953",
"a. c #DB7D51",
"s. c #D37B59",
"d. c #DD7D5A",
"f. c #E17944",
"g. c #E4794D",
"h. c #E97A4D",
"j. c #E27C53",
"k. c #EB7D53",
"l. c #C77F69",
"z. c #869F14",
"x. c #8CAC16",
"c. c #90A919",
"v. c #91B016",
"b. c #A3BE1D",
"n. c #9C8422",
"m. c #98822A",
"M. c #9D9826",
"N. c #A09C25",
"B. c #A1A325",
"V. c #A3A923",
"C. c #A1A929",
"Z. c #ABBE21",
"A. c #A4C01C",
"S. c #A6CE1A",
"D. c #A7D21B",
"F. c #ACDA1C",
"G. c #B5E61D",
"H. c #BDCE2B",
"J. c #B7DB24",
"K. c #BBD32B",
"L. c #BDC833",
"P. c #B6E022",
"I. c #BC954E",
"U. c #BAA74F",
"Y. c #B5886B",
"T. c #BE9B62",
"R. c #DB824E",
"E. c #CA924E",
"W. c #DC8253",
"Q. c #D6815A",
"!. c #DB805D",
"~. c #C59353",
"^. c #C3985C",
"/. c #E28153",
"(. c #C2AF47",
"). c #C48669",
"_. c #DA8065",
"`. c #C69C66",
"'. c #CB8D74",
"]. c #D28976",
"[. c #FFE98F",
"{. c #FFF18B",
"}. c #FFE792",
"|. c #FDEC90",
" X c #FFEA99",
".X c #FFF697",
"XX c #FFEDA2",
"oX c #FFF2A2",
/* pixels */
"G.G.G.G.G.G.G.G.G.G.G.G.G.G.G.G.G.G.G.G.G.G.G.G.G.G.G.G.G.G.G.G.G.G.G.G.G.G.G.G.G.G.G.G.G.G.G.G.G.G.G.G.G.G.G.G.G.G.G.G.G.G.G.G.",
"G.G.G.G.G.G.G.G.G.G.G.G.G.G.G.G.G.G.G.G.G.G.G.G.G.G.G.G.G.G.G.G.G.G.G.G.G.G.G.G.G.G.G.G.G.G.G.G.G.G.G.G.G.G.G.G.G.G.G.G.G.G.G.G.",
"G.G.G.G.G.G.G.G.G.G.G.G.G.G.G.G.G.G.G.G.G.G.G.G.G.G.G.G.G.G.G.G.G.G.G.G.G.G.G.G.G.G.G.G.G.G.G.G.G.G.G.G.G.G.G.G.G.G.G.G.G.G.G.G.",
"G.G.G.G.G.G.G.G.G.G.G.G.G.G.G.G.G.G.G.G.G.G.G.G.G.G.G.G.G.G.G.G.G.G.G.G.G.G.G.G.G.G.G.G.G.G.G.G.G.G.G.G.G.G.G.G.G.G.G.G.G.G.G.G.",
"G.G.G.G.G.G.G.G.G.G.G.G.G.G.G.G.G.G.G.G.G.G.G.G.G.G.G.G.G.G.G.G.G.G.G.G.G.G.G.G.G.G.G.G.G.G.G.G.G.G.G.G.G.G.G.G.G.G.G.G.G.G.G.G.",
"G.G.G.G.G.G.G.G.G.G.G.G.G.G.G.G.G.G.G.G.G.G.G.G.G.G.G.G.G.G.G.G.G.G.G.G.G.G.G.G.G.G.G.G.G.G.G.G.G.G.G.G.G.G.G.G.G.G.G.G.G.G.G.G.",
"G.G.G.G.G.G.G.G.G.G.G.G.G.G.G.G.G.G.G.G.G.G.G.G.G.G.G.G.G.G.G.G.G.G.G.G.G.G.G.G.G.G.G.G.G.G.G.G.G.G.G.G.G.G.G.G.G.G.G.G.G.G.G.G.",
"G.G.G.G.G.G.G.G.G.G.G.G.G.G.G.G.G.G.G.G.G.G.G.G.G.G.G.G.G.G.G.G.G.G.G.G.G.G.G.G.G.G.G.G.G.G.G.G.G.G.G.G.G.G.G.G.G.G.G.G.G.G.G.G.",
"G.G.G.G.G.G.G.G.G.G.G.G.G.G.G.G.G.G.G.G.G.G.G.G.G.G.G.G.G.G.G.G.G.G.G.G.G.G.G.G.G.G.G.G.G.G.G.G.G.G.G.G.G.G.G.G.G.G.G.G.G.G.G.G.",
"G.G.G.G.G.G.G.G.G.G.G.G.G.G.G.G.G.G.G.G.G.G.G.G.G.G.G.G.G.G.G.G.G.G.G.G.G.G.G.G.G.G.G.G.G.G.G.G.G.G.G.G.G.G.G.G.G.G.G.G.G.G.G.G.",
"G.G.G.G.G.G.G.G.G.G.G.G.G.G.G.G.G.G.G.G.G.G.G.G.G.G.G.G.G.G.G.G.G.G.G.G.G.G.G.G.G.G.G.G.G.G.G.G.G.G.G.G.G.G.G.G.G.G.G.G.G.G.G.G.",
"G.G.G.G.G.G.G.G.G.G.G.G.G.G.G.G.G.G.G.G.G.G.G.G.G.G.G.G.G.G.G.G.G.G.G.G.G.G.G.G.G.G.G.G.G.G.G.G.G.G.G.G.G.G.G.G.G.G.G.G.G.G.G.G.",
"G.G.G.G.G.G.G.G.G.G.G.G.G.G.G.G.G.G.G.G.G.G.G.G.G.G.G.G.G.G.G.G.G.G.G.G.G.G.G.G.G.G.G.G.G.G.G.G.G.G.G.G.G.G.G.G.G.G.G.G.G.G.G.G.",
"G.G.G.G.G.G.G.G.G.G.G.G.G.G.G.G.G.G.G.G.G.G.G.G.G.G.G.G.G.G.G.G.G.G.G.G.G.G.G.G.G.G.G.G.G.G.G.G.G.G.G.G.G.G.G.G.G.G.G.G.G.G.G.G.",
"G.G.G.G.G.G.G.G.G.G.G.G.G.G.G.G.G.G.G.G.G.G.G.G.G.G.G.G.G.G.G.G.G.G.G.G.G.G.G.G.G.G.G.G.G.G.G.G.G.G.G.G.G.G.G.G.G.G.G.G.G.G.G.G.",
"G.G.G.G.G.G.G.G.G.G.G.G.G.G.G.G.G.G.G.G.G.G.G.G.G.G.G.G.G.G.G.G.G.G.G.G.G.G.G.G.G.G.G.G.G.G.G.G.G.G.G.G.G.G.G.G.G.G.G.G.G.G.G.G.",
"G.G.G.G.G.G.G.G.G.G.G.G.G.G.G.G.G.G.G.G.G.G.G.G.G.G.G.G.G.G.K.K.K.K.G.G.G.G.G.G.G.G.G.G.G.G.G.G.G.G.G.G.G.G.G.G.G.G.G.G.G.G.G.G.",
"G.G.G.G.G.G.G.G.G.G.G.G.G.G.G.G.G.G.G.G.G.G.G.G.G.G.G.J.J.Q.p.k.k.u.Q.J.P.G.G.G.G.G.G.G.G.G.G.G.G.G.G.G.G.G.G.G.G.G.G.G.G.G.G.G.",
"G.G.G.G.G.G.G.G.G.G.G.G.G.G.G.G.G.G.G.G.G.G.G.G.G.H._.!.W.R./.u.u.W./.j.d.!.H.G.G.G.G.G.G.G.G.G.G.G.G.G.G.G.G.G.G.G.G.G.G.G.G.G.",
"G.G.G.G.G.G.G.G.G.G.G.G.G.G.G.G.G.G.G.G.G.G.G.G.j.k.j.a.! S E ( _ L j z g.h.h.W.G.G.G.G.G.G.G.G.G.G.G.G.G.G.G.G.G.G.G.G.G.G.G.G.",
"G.G.G.G.G.G.G.G.G.G.G.G.G.G.G.G.G.G.G.G.G.G.G.d.g.y./ E ! ~ l ~ ! c ~ ~ z ~ y.a.s.I.G.G.G.G.G.G.G.G.G.G.G.G.G.G.G.G.G.G.G.G.G.G.",
"G.G.G.G.G.G.G.G.G.G.G.G.G.G.G.G.G.G.G.G.G.G.s.k.! ! E ^ U $.I o.+.o.$.U ) ! ( ( /.s.`.G.G.G.G.G.G.G.G.G.G.G.G.G.G.G.G.G.G.G.G.G.",
"G.G.G.G.G.G.G.G.G.G.G.G.G.G.G.G.G.G.G.G.G.R.a.L L _ d p ;.  O . . O X ;.p g 4.d ( a.W.~.G.G.G.G.G.G.G.G.G.G.G.G.G.G.G.G.G.G.G.G.",
"G.G.G.G.G.G.G.G.G.G.G.G.G.G.G.G.G.G.G.G.R.f.( U O.o.%.# % X o . . o X $ % %.o.4.( ~ f.W.^.G.G.G.G.G.G.G.G.G.G.G.G.G.G.G.G.G.G.G.",
"G.G.G.G.G.G.G.G.G.G.G.G.G.G.G.G.G.G.G.L.d.b b 2.o.X.$ $ @ >.#.o.O.$.| $ $   X.O.) v l W.~.G.G.G.G.G.G.G.G.G.G.G.G.G.G.G.G.G.G.G.",
"G.G.G.G.G.G.G.G.G.G.G.G.G.G.G.G.G.G.G.s.2.b 3.O.%.+ $ :.; 8.b ) M v L +.9 $ % { ( ) l ^ i.T.G.G.G.G.G.G.G.G.G.G.G.G.G.G.G.G.G.G.",
"G.G.G.G.G.G.G.G.G.G.G.G.G.G.G.G.G.G.(.! ~ ) g %.$ % { @.: N B V b n W E P Y $ % @.s ~ ! U ).G.G.G.G.G.G.G.G.G.G.G.G.G.G.G.G.G.G.",
"G.G.G.G.G.G.G.G.G.G.G.G.G.G.G.G.G.G.E./ h ) &.@ $ } T ( < 2.g 2.b v v ~ j L *.$ @ %.( u _ ).F.G.G.G.G.G.G.G.G.G.G.G.G.G.G.G.G.G.",
"G.G.G.G.G.G.G.G.G.G.G.G.G.G.G.G.G.U.g ~ E T & X ..@.i E ! L ` i ) b 6.e 3.b I ... & +.L ^ I Y.G.G.G.G.G.G.G.G.G.G.G.G.G.G.G.G.G.",
"G.G.G.G.G.G.G.G.G.G.G.G.G.G.G.G.G.^.4.i _ | . X X.4.l ~ u ! R R ~ b N : B 3.4.{ o . | T u T ).v.G.G.G.G.G.G.G.G.G.G.G.G.G.G.G.G.",
"G.G.G.G.G.G.G.G.G.G.G.G.G.G.G.G.G.).U 5.o.@   -.o.n M k ' ! j W W d 5., b 7.x 6.;.+ @ | ] L l.6 G.G.G.G.G.G.G.G.G.G.G.G.G.G.G.G.",
"G.G.G.G.G.G.G.G.G.G.G.G.G.G.G.G.G.'.f U X.@ % { 2.v m m n c ~ E l ( U < ) v ' b  .% $ } L K ].6 G.G.G.G.G.G.G.G.G.G.G.G.G.G.G.G.",
"G.G.G.G.G.G.G.G.G.G.G.G.G.G.G.G.D.t.U 4.{ % % X.( c v n < 2.) ! d 3.b > ) v v (  .$ $ [ T U t.6 G.G.G.G.G.G.G.G.G.G.G.G.G.G.G.G.",
"G.G.G.G.G.G.G.G.G.G.G.G.G.G.G.G.z.1.K 4. .@ + X.( c ! ( < 6.( ! ) ) ) c S S Q P X.+ $ } T K 1.4 G.G.G.G.G.G.G.G.G.G.G.G.G.G.G.G.",
"G.G.G.G.G.G.G.G.G.G.G.G.G.G.G.G.4 8 I @. .+ $ X.U ! ! ) > C ) c ! j l ^ F [.|.G ..@ @ %._ L H 6 G.G.G.G.G.G.G.G.G.G.G.G.G.G.G.G.",
"G.G.G.G.G.G.G.G.G.G.G.G.G.G.G.G.4 9 @.o. .% $ X.U ~ l ! > B ) z E E E D .X{.{.oX9 # # #.L _ { 6 G.G.G.G.G.G.G.G.G.G.G.G.G.G.G.G.",
"G.G.G.G.G.G.G.G.G.G.G.G.G.G.G.G.4 ;.I I  .% % X.( ~ l ~ e V ) z ~ / u D }..X|.XX0 % % =.I I ;.6 G.G.G.G.G.G.G.G.G.G.G.G.G.G.G.G.",
"G.G.G.G.G.G.G.G.G.G.G.G.G.G.G.G.4 ;.f O.>.@ + X.U ~ W ~ a 2.~ z E c ) L 1  XoX2 q + + ;.+.J ,.6 G.G.G.G.G.G.G.G.G.G.G.G.G.G.G.G.",
"G.G.G.G.G.G.G.G.G.G.G.G.G.G.G.G.4 X.U 4.>.@ + X.U ~ E / 2.2.! E ! ~ n b _ 3 3 Y ..+ + X.T I >.6 G.G.G.G.G.G.G.G.G.G.G.G.G.G.G.G.",
"G.G.G.G.G.G.G.G.G.G.G.G.G.G.G.G.4 { O.U  .@ % | L ~ R S 2.U E W ~ v n V b ( ! U  .% $ } L (  .6 G.G.G.G.G.G.G.G.G.G.G.G.G.G.G.G.",
"G.G.G.G.G.G.G.G.G.G.G.G.G.G.G.G.4 ..T U X.+ + ..T l Q S O.O.i W l ) 3.: 3.) v b >.+ + | ! ( ;.4 G.G.G.G.G.G.G.G.G.G.G.G.G.G.G.G.",
"G.G.G.G.G.G.G.G.G.G.G.G.G.G.G.G.4 ..U I { % % ..U l E ! < g ! j ~ d b y d d v 3.>.% % { d ( ..4 G.G.G.G.G.G.G.G.G.G.G.G.G.G.G.G.",
"G.G.G.G.G.G.G.G.G.G.G.G.G.G.G.G.4 H T T X.+ + { ( ~ ~ ) - V ' v ~ c ( < ` ! ~ U =.+ +  .4.U 8 4 G.G.G.G.G.G.G.G.G.G.G.G.G.G.G.G.",
"G.G.G.G.G.G.G.G.G.G.G.G.G.G.G.G.4 [ T U  .% % ,.g ) v b r Z n v v ) b > ) E ! U ,.+ %  .U U [ 4 G.G.G.G.G.G.G.G.G.G.G.G.G.G.G.G.",
"G.G.G.G.G.G.G.G.G.G.G.G.G.G.G.G.4 X.U s  .= +  .O.3.b b t A B ) v ) ) v ( / ! _  .+ % X.s ( %.6 G.G.G.G.G.G.G.G.G.G.G.G.G.G.G.G.",
"G.G.G.G.G.G.G.G.G.G.G.G.G.G.G.G.7 X.U O.;.+ + -.#.O.O.$.; <.$.O.g 4.2.O.O.T L I ;.+ + X.L ( X.6 G.G.G.G.G.G.G.G.G.G.G.G.G.G.G.G.",
"G.G.G.G.G.G.G.G.G.G.G.G.G.G.G.G.G.X.I @.-.  * w.q.n.n.M.b.C.B.V.V.V.V.A.M.B.Z.N.w.* X .._ L =.4 G.G.G.G.G.G.G.G.G.G.G.G.G.G.G.G.",
"G.G.G.G.G.G.G.G.G.G.G.G.G.G.G.G.G.e.9.m.r.c.S.F.G.G.G.G.G.G.G.G.G.G.G.G.G.G.G.G.G.G.S.0.X.X.w 4 G.G.G.G.G.G.G.G.G.G.G.G.G.G.G.G.",
"G.G.G.G.G.G.G.G.G.G.G.G.G.G.G.G.G.G.G.F.F.F.G.G.G.G.G.G.G.G.G.G.G.G.G.G.G.G.G.G.G.G.G.G.D.x.5 G.G.G.G.G.G.G.G.G.G.G.G.G.G.G.G.G.",
"G.G.G.G.G.G.G.G.G.G.G.G.G.G.G.G.G.G.G.G.G.G.G.G.G.G.G.G.G.G.G.G.G.G.G.G.G.G.G.G.G.G.G.G.G.G.G.G.G.G.G.G.G.G.G.G.G.G.G.G.G.G.G.G.",
"G.G.G.G.G.G.G.G.G.G.G.G.G.G.G.G.G.G.G.G.G.G.G.G.G.G.G.G.G.G.G.G.G.G.G.G.G.G.G.G.G.G.G.G.G.G.G.G.G.G.G.G.G.G.G.G.G.G.G.G.G.G.G.G.",
"G.G.G.G.G.G.G.G.G.G.G.G.G.G.G.G.G.G.G.G.G.G.G.G.G.G.G.G.G.G.G.G.G.G.G.G.G.G.G.G.G.G.G.G.G.G.G.G.G.G.G.G.G.G.G.G.G.G.G.G.G.G.G.G.",
"G.G.G.G.G.G.G.G.G.G.G.G.G.G.G.G.G.G.G.G.G.G.G.G.G.G.G.G.G.G.G.G.G.G.G.G.G.G.G.G.G.G.G.G.G.G.G.G.G.G.G.G.G.G.G.G.G.G.G.G.G.G.G.G.",
"G.G.G.G.G.G.G.G.G.G.G.G.G.G.G.G.G.G.G.G.G.G.G.G.G.G.G.G.G.G.G.G.G.G.G.G.G.G.G.G.G.G.G.G.G.G.G.G.G.G.G.G.G.G.G.G.G.G.G.G.G.G.G.G.",
"G.G.G.G.G.G.G.G.G.G.G.G.G.G.G.G.G.G.G.G.G.G.G.G.G.G.G.G.G.G.G.G.G.G.G.G.G.G.G.G.G.G.G.G.G.G.G.G.G.G.G.G.G.G.G.G.G.G.G.G.G.G.G.G.",
"G.G.G.G.G.G.G.G.G.G.G.G.G.G.G.G.G.G.G.G.G.G.G.G.G.G.G.G.G.G.G.G.G.G.G.G.G.G.G.G.G.G.G.G.G.G.G.G.G.G.G.G.G.G.G.G.G.G.G.G.G.G.G.G.",
"G.G.G.G.G.G.G.G.G.G.G.G.G.G.G.G.G.G.G.G.G.G.G.G.G.G.G.G.G.G.G.G.G.G.G.G.G.G.G.G.G.G.G.G.G.G.G.G.G.G.G.G.G.G.G.G.G.G.G.G.G.G.G.G.",
"G.G.G.G.G.G.G.G.G.G.G.G.G.G.G.G.G.G.G.G.G.G.G.G.G.G.G.G.G.G.G.G.G.G.G.G.G.G.G.G.G.G.G.G.G.G.G.G.G.G.G.G.G.G.G.G.G.G.G.G.G.G.G.G.",
"G.G.G.G.G.G.G.G.G.G.G.G.G.G.G.G.G.G.G.G.G.G.G.G.G.G.G.G.G.G.G.G.G.G.G.G.G.G.G.G.G.G.G.G.G.G.G.G.G.G.G.G.G.G.G.G.G.G.G.G.G.G.G.G.",
"G.G.G.G.G.G.G.G.G.G.G.G.G.G.G.G.G.G.G.G.G.G.G.G.G.G.G.G.G.G.G.G.G.G.G.G.G.G.G.G.G.G.G.G.G.G.G.G.G.G.G.G.G.G.G.G.G.G.G.G.G.G.G.G.",
"G.G.G.G.G.G.G.G.G.G.G.G.G.G.G.G.G.G.G.G.G.G.G.G.G.G.G.G.G.G.G.G.G.G.G.G.G.G.G.G.G.G.G.G.G.G.G.G.G.G.G.G.G.G.G.G.G.G.G.G.G.G.G.G.",
"G.G.G.G.G.G.G.G.G.G.G.G.G.G.G.G.G.G.G.G.G.G.G.G.G.G.G.G.G.G.G.G.G.G.G.G.G.G.G.G.G.G.G.G.G.G.G.G.G.G.G.G.G.G.G.G.G.G.G.G.G.G.G.G.",
"G.G.G.G.G.G.G.G.G.G.G.G.G.G.G.G.G.G.G.G.G.G.G.G.G.G.G.G.G.G.G.G.G.G.G.G.G.G.G.G.G.G.G.G.G.G.G.G.G.G.G.G.G.G.G.G.G.G.G.G.G.G.G.G.",
"G.G.G.G.G.G.G.G.G.G.G.G.G.G.G.G.G.G.G.G.G.G.G.G.G.G.G.G.G.G.G.G.G.G.G.G.G.G.G.G.G.G.G.G.G.G.G.G.G.G.G.G.G.G.G.G.G.G.G.G.G.G.G.G."
};
