/* XPM */
static char *_adcdb8d3dfb4a76ed77d0dfc2fbdf539bFoEaUxZtPtaJEU[] = {
/* columns rows colors chars-per-pixel */
"64 64 9 1 ",
"  c None",
". c black",
"X c #0F1833",
"o c #2F1D5A",
"O c #17394A",
"+ c #5A5875",
"@ c #A84111",
"# c #8C6A56",
"$ c #FCA89D",
/* pixels */
"                                                                ",
"                                                                ",
"                                                                ",
"                                                                ",
"                                                                ",
"                                                                ",
"                                                                ",
"                                                                ",
"                                                                ",
"                                                                ",
"                                                                ",
"                                                                ",
"                                                                ",
"                                                                ",
"                                                                ",
"                                                                ",
"                                                                ",
"                                                                ",
"                                                                ",
"                                                                ",
"                                                                ",
"                                ++++                            ",
"                              +++++++                           ",
"                             +++++++++                          ",
"                           ##+++++++++                          ",
"                          ##+++++$$$$+                          ",
"                         ####+++$..$.+                          ",
"                        #####++$$$$$$                           ",
"                       #####+#++$$$$+                           ",
"                      #######+++++++                            ",
"                      #########++++                             ",
"                      ########++##++  ##$$                      ",
"                      ########O#O######$$$$                     ",
"                     #########O#OO####$$$$$                     ",
"                     #########OOOO####X@$@                      ",
"                     ##$$#####OOO#O###X@@@                      ",
"                     ##$$$##O#OOO#O#  # @@                      ",
"                     ###$$##OOOOOOO#    @                       ",
"                     ##$$###OOOOOOO#    @                       ",
"                     ######OOOOOOOO#    @                       ",
"                      # ###OOOOOOO      @                       ",
"                        OOO    ooo      @                       ",
"                        OOO    oooo     @                       ",
"                        OOO                                     ",
"                                                                ",
"                                                                ",
"                                                                ",
"                                                                ",
"                                                                ",
"                                                                ",
"                                                                ",
"                                                                ",
"                                                                ",
"                                                                ",
"                                                                ",
"                                                                ",
"                                                                ",
"                                                                ",
"                                                                ",
"                                                                ",
"                                                                ",
"                                                                ",
"                                                                ",
"                                                                "
};
