/* XPM */
static char *bf7217ec92c44530b057171b217584c61JNW4uFuixhSPOOx[] = {
/* columns rows colors chars-per-pixel */
"64 64 9 1 ",
"  c black",
". c #0F1833",
"X c #2F1D5A",
"o c #17394A",
"O c #5A5875",
"+ c #A84111",
"@ c #8C6A56",
"# c #B5E61D",
"$ c #FCA89D",
/* pixels */
"################################################################",
"################################################################",
"################################################################",
"################################################################",
"################################################################",
"################################################################",
"################################################################",
"################################################################",
"################################################################",
"################################################################",
"################################################################",
"################################################################",
"################################################################",
"################################################################",
"################################################################",
"################################################################",
"################################################################",
"################################################################",
"################################################################",
"################################################################",
"################################################################",
"############################OOOO################################",
"###########################OOOOOOO##############################",
"##########################OOOOOOOOO#############################",
"##########################OOOOOOOOO@@###########################",
"##########################O$$$$OOOOO@@##########################",
"##########################O $  $OOO@@@@#########################",
"###########################$$$$$$OO@@@@@########################",
"###########################O$$$$OO@O@@@@@#######################",
"############################OOOOOOO@@@@@@@######################",
"#############################OOOO@@@@@@@@@######################",
"######################$$@@##OO@@OO@@@@@@@@######################",
"#####################$$$$@@@@@@o@o@@@@@@@@######################",
"#####################$$$$$@@@@oo@o@@@@@@@@@#####################",
"######################+$+.@@@@oooo@@@@@@@@@#####################",
"######################+++.@@@o@ooo@@@@@$$@@#####################",
"######################++#@##@o@ooo@o@@$$$@@#####################",
"#######################+####@ooooooo@@$$@@@#####################",
"#######################+####@ooooooo@@@$$@@#####################",
"#######################+####@oooooooo@@@@@@#####################",
"#######################+######ooooooo@@@#@######################",
"#######################+######XXX####ooo########################",
"#######################+#####XXXX####ooo########################",
"#####################################ooo########################",
"################################################################",
"################################################################",
"################################################################",
"################################################################",
"################################################################",
"################################################################",
"################################################################",
"################################################################",
"################################################################",
"################################################################",
"################################################################",
"################################################################",
"################################################################",
"################################################################",
"################################################################",
"################################################################",
"################################################################",
"################################################################",
"################################################################",
"################################################################"
};
