/* XPM */
static char *_5b6e17852be499ddd3a9e91b01150657bbxd8loFPE2uQMe[] = {
/* columns rows colors chars-per-pixel */
"64 64 57 1 ",
"  c #272727",
". c #292927",
"X c #2A272A",
"o c #2C2C2C",
"O c #302D2E",
"+ c #30302E",
"@ c #302D30",
"# c #343434",
"$ c #383836",
"% c #393739",
"& c #3B3B3B",
"* c #413E41",
"= c #434243",
"- c #494649",
"; c #4E4D4E",
": c #514E4F",
"> c #51514F",
", c #524F51",
"< c #525152",
"1 c #595659",
"2 c #5B5A5B",
"3 c #615E5F",
"4 c #605D60",
"5 c #666366",
"6 c #646464",
"7 c #676467",
"8 c #6A676A",
"9 c #686868",
"0 c #6C6B6C",
"q c #6C6C6C",
"w c #6F6F6F",
"e c #716E71",
"r c #737073",
"t c #757273",
"y c #747174",
"u c #747474",
"i c #777477",
"p c #787576",
"a c #787578",
"s c gray47",
"d c #7C797C",
"f c #7E7E7E",
"g c gray50",
"h c #827F82",
"j c #828082",
"k c #838383",
"l c #848182",
"z c #848184",
"x c #848484",
"c c #858485",
"v c gray53",
"b c #888586",
"n c #8A878A",
"m c gray54",
"M c #8C898A",
"N c gray55",
"B c #8F8C8D",
/* pixels */
"nr,:::<2tpyyyyiiysjccjcmcsoooooooo&&&&&$oooooooo>>oo><jjcjsriiii",
"ne,,,<<2eyyyyyiiyiccccjjciooO#oooo&&&&&$oooooooo>>oo;>jjcjiriiii",
"ne:,:3ytyiiiiiiiiiiiriiscccjcMoooo&&oooooooo.+>>>;.o$&<<jccccccj",
"zy,1<4yiiiiiiiiiiiiiiiisjjcjcMoooo&&ooooooooo#<<-;oo&&;;jjcjcccc",
",;,2iyypiiiiiiiiiiiriiiiisccnBoooo ooooooooo<<<-oooo&&;;<<<<irrr",
"<,,2yyyiiiiiiiiiiiiiiiiirscclboooooooooo#o##<<<<oooo&&;;;>;<wrrr",
"14rrrrryyyyyyyyyyiccmccjjccjiioooo;;;;;<rrirriiwoooo&&&&;;<<&&&&",
",4yiiiiiiiiiiiiiiimNmmmmmmmcssoooo;<<<<-iiiiiii9oooo$$$&;><;&&&&",
"<8cccccccccccccccmBi o&&$$ooooo#<;<;<<<;cmiiiiiiiroo++&&&$$&&&oo",
";5jccccccccccccccjjioo&&&$ooooo$<1<<<<;;cjiiiiisiioooo$&&&&&&&oo",
"o&<<<<<<<<<<<<<<<<>;&$ooooo$riiiiimj><;;mcriiiiiiroooooooooooooo",
"o&;<<<;<<<<<;;<<<<;=&$o ooo&iiiiiicc<<;<jjriiiiiiroooooooooooooo",
"o#&&&&&=<<<-&&&&&&&&&$o#irrriiiicccf<<;<o$cmcciiiiwroooooooowwoo",
"@#&&&&&=<;<-&&&&&&&&&$.+iiiiiiiicccj<<;<o$mmcciiiriroooooooori o",
"ooooo#&&&$ooooooooo&iiiiiiiirijcmj<<2<oo&&<<ccjciiiiriiiiiiiiiir",
"@@ooo#&&$#oo oooooo&rrriiriiiicccj;<1<oo&=<<jccciirriiiiiiiiirir",
"z2oooooooooo $jjjfrwriiiiscmcccf<<&&&&&$&$<;1<ccjjiiiiiiiiiiiiir",
"z4 oooooooooo$mccciiiriiiscmcccj>;&&&&&&&&<<<<cmccirsiiiiiiiiirr",
"cjr2ooooo&r9<2mBmcrririiiicf<;<;&&&&oooo&&&&&$11cccccciiiiiiiirr",
"chr6ooooo&r9;1jjcjiriiiiiscf<<<<&&&$oooo&&&&&&;<cccjcciiiiiiiiis",
"ce1=ooo&wwr2ooo=ccjfiiiscccf<;;;&&oooooooooo&&&&&&&*jccccccccccj",
"zw;-oo@=yya2@oo*zjmjiiiijccf<<;;&$ooooo+oooo$&&&&&&&cccccccccmmc",
"*&&%o=yriiyyy6oo@=ccccccmf<;oo&&ooooo#wroooooooooooooo***=1<<<&&",
"%&%#X=aiiiiiieXoo=ccmmcmmf<=oo&&ooooo#rioooooooooooooo&&&&;;;<&&",
"Xoo*aayiiiiiiyy6oo &irir<;<;$&&&ooo#riiriiiiiiiwooooooooooo#$$$$",
"oo@=ayyiiiiiiii5ooo$irrr;;<;&&&&ooo#iirriiiiiiiwoooooooooooo&&&&",
"reeyryiiiiiiiiiye2oo#$;<<-&&oooooowwiwriiiiiiiis9wwiff&&oo;<fcjf",
"yaayyiiiiiiiiiiyy6ooo#<;1-&$ooooooiriiiiiiiiiiiriirscc&&oo<;ccmj",
"zncjcfyiiiiyiiisjcfioo&&&&ooooo&wwiiiiiiiiiiiiiiiiiscc&&oo<<<1jc",
"zmnccfiiiiiiiiisccmsoo&&&&oooo $iiiiiiiiiiiiiiiiiiiijc&&oo<<;<jc",
"<5iscccccccfiiccmroo&$ooooo#;;;2iiiiiiiiiiiiiiiicccjcj&&oo<<;;;;",
"<2rscccccccjiicmcroo&$ooooo#<;<<iiiiiiiiiiiiiiiijccjcj&&oo<<;;;;",
"<<<226isifcccccs2<$&oooo;;;;<;wrcjjjrriiiirrcccmcc$$==&&oooo;;>;",
"<<<<;2iiiscmcmcs<-&&ooo#<<<;<1ismccciiiiiirrcccmccoo&&&&ooo#<<<<",
"<<<<<<<<<<;;&&&&$&&&ooooo#<><;1<;1cccccccccccj<;<2#$&&oo owr=&&&",
",<<,<;<<<;;-&&&&&&&$ooooo#;><<<<;1cccccccccccm><;;&&&&ooo#ir&&&&",
"o#&&&&&&&&&&&=rrr6<-;=o# o&&&&<<<;1111<<<<<111<<=&&&oowrrimmcjoo",
"o#%&&&&&&&&&&=iir9;><=oooo&&&&<<<;<;<<>><<<>;;<;&&&$oowiiimccjoo",
"oooooooooo#oo$iirirrww96oooo&$&&&&&&<<<<<<>><<o#&$;;9wriiisrcmsf",
"ooooooooooooo$iiriiiirrwoooo&&&&&$&&;;;;;;;<<<oo&$;1rriiiirijcmc",
"s8<<<2iiiiiiiiiiiiiiiiisiis9#ooooo&&&&&&&&&$oo o;;iiiiiiiiiisfcc",
"i8<<;2riiiiiiiiiiiiiiriirir9oooooo&&&&&&&&&&oooo><riiiiiiiiiricc",
"1<;<<2iiiiiiiiiiriiiiifjcj1<-= ooo#oooo+$&&&&$66w9riiiiiiirrircc",
",,,;,2iiiiyyiyryyaayysczmf<<<<oooooooooo$&&&&&iiiiiiiiiiiiirricc",
",,,2yriiiyyyyyyyayyazzcj1<<;&*ooooooooooooo+ooriuiiiiiiiiiiicjcc",
",,,2yaaiiiyiyyyrereazzmc1;<-&$o ooooooooooooooiiuuiiiiiiiiiicBmm",
",,,2yiyyaazczzrdcccnms,1o#&&&&.$www6oooooooooorrrriiiiiiiiiicc11",
",,,1yyyyidzmcziazzcnnd,;oo&&&$o$iiiwooooooooo risiiiiiiiiiiicc<<",
",,,1yyyszzna24zzmd1421&*$$oooo66iiii66666666o.$&jjjjjjiiiijjjc<<",
",,,1yyiannni,1cncd<,<;&%%&ooooiiiiiiiiiiiiirooo#jccccciiiicccc<<",
"oo@*yyyana<<,<<<1<;;&&&&ooo$rriiiiiiiiiiiiiwwr&&*&##ccccccmc21<<",
"ooo=ayrfBi,,,<,,<;;;&&&&ooo$iiiiiiiiiiiiiiiirr&&&&oocccccccc<;;;",
"ooo@%,ae21,,,<,;&=;;&$ooo#99iiiiiiiiaaiiiiiriiii&&&&$&222222<;;;",
"ooo@X=y0<,,,,,;;&&;;&$ooo$iiiiiiiiiiiiiiiiiirrcj&&&$oo<<<;;<;<<<",
"o-8,@#&&*&*&*&*&%$$#oooo66iiiiiiiiiiiiiiiiiiiicj&&&&&&&&;;&====&",
"o;a2@oo@&&%&&%%%%#oooooorriiiiiiiiiiiiiiiiiirimj&&&&&&&&;<&&&&&&",
"00ydd2oo@oo#&$ooooooo&w6rririiiiiiiiiiiiiiiijjmj&&oooooo##oooooo",
"yyyan0ooooX@&$ooooooo&rsrriiiiiiiiiiiirriiiiccmj&&ooooooooooo .o",
"iyiac9oooooo+oooo&66wrcfjjjjjjjjjjjjjjiijjfjmc;<oooo26oooooo2666",
"ayisc6ooooooooooo&ricccmccccccccccccccisccjjmm$$ooooir#ooooowiii",
"idjcjr-;==o$-;6662&&=-12222222222222jcjjjf2222&&oo-=&&699966iiii",
"yfcnci<1<=o$<1iii6o+&&;;1<<<;<<<<>><ccmccj<<<;&&oo1;o#wrriiiiiii",
"jjcmci<<<<-<wwiii6oo#####$&=&&&&&*<<2222;;&&&&oooo<<oofjriiiiiii",
"mcccmi<<<<;2iriii6 ooooooo$&&&&&$&;<<<<<&$&&&&oooo<<oojcriiiiiii"
};
